<?xml version="1.0" encoding="UTF-8"?>
<svg id="Layer_2" data-name="Layer 2" xmlns="http://www.w3.org/2000/svg" viewBox="0 0 140.55 196.38">
  <defs>
    <style>
      .cls-1 {
        fill: #0519d1;
      }

      .cls-2 {
        fill: none;
        stroke: #231f20;
        stroke-miterlimit: 10;
        stroke-width: 13px;
      }
    </style>
  </defs>
  <g id="TEXTS">
    <g id="Layer_4" data-name="Layer 4">
      <line class="cls-2" x1="134.05" y1="64.46" x2="134.05" y2="123.61"/>
      <line class="cls-2" x1="6.53" y1="95.84" x2="136.98" y2="95.84"/>
      <line class="cls-2" x1="30.27" y1="191.89" x2="51.72" y2="169.42"/>
      <line class="cls-2" x1="28.54" y1="4.4" x2="52.03" y2="29.93"/>
      <path class="cls-2" d="M39.01,17.17c-44.81,46.95-43.09,121.2,3.86,166.01"/>
    </g>
    <g>
      <path class="cls-1" d="M72.32,83.85l-12.98,32.22c-.11.02-.21.09-.25.2l-5.29.85c-.06-.14-.2-.22-.35-.2l-9.27-23.47c-.09.29-.5.3-.61.02l-6.15,19.56c-.08.04-.14.11-.16.19l-9.75,4.87c-.05-.2-.27-.3-.46-.21l-.74-2.98c.14-.06.22-.22.18-.37l3.76-1.72c-.05-.15.03-.32.17-.39l-.49-1.58c-.18.08-.38-.01-.44-.2l-3.65,1.64c-.05-.2-.26-.3-.45-.22l-.64-2.6c.15-.06.23-.22.19-.38l3.32-1.33c-.05-.16.03-.34.18-.4l-.48-1.42c-.17.06-.36-.03-.41-.2l-3.23,1.15c-.05-.18-.24-.28-.42-.22l-.63-2.35c.15-.06.23-.22.19-.38l2.96-1.22c-.05-.16.03-.34.18-.4l-.48-1.44c-.17.07-.37-.02-.43-.2l-2.71,1.1c-.05-.19-.25-.28-.43-.21l-4.92-17.48c.14-.07.22-.23.18-.38l5.45-2.47c.07.17.26.25.43.17l9.98,24.48c.1-.28.49-.28.6-.01l8.09-22.17c.1-.03.18-.1.22-.2l9.36-2.57c.04.18.22.3.4.25l5.05,26.13c.11-.31.56-.28.62.04l8.92-25.83c.17.08.37-.01.43-.19l4.76,2.1c-.06.16,0,.34.17.41ZM48.84,119.09c0,1.23-.45,2.29-1.34,3.18-.89.89-1.95,1.34-3.18,1.34s-2.28-.45-3.16-1.34c-.88-.89-1.32-1.95-1.32-3.18,0-1.16.4-2.16,1.22-3,1.26.03,2.51-.49,3.38-1.4,1.18.03,2.19.46,3.06,1.3.89.87,1.34,1.9,1.34,3.11Z"/>
      <path class="cls-1" d="M89.99,119.13l-14.48-1.87c.03-.18-.1-.35-.28-.37l5.54-34.55c.16,0,.29-.11.32-.27h6.21c.01.17.15.3.32.3l2.73,36.43c-.2-.03-.38.14-.36.34ZM91.49,73.66l-.65,1.58c-.17-.09-.37-.01-.45.16l-2.6-1.35c-.09.12-.25.15-.39.08-.29.34-.61.63-.96.85-.33.21-.68.38-1.07.5.03.17-.06.34-.23.38l.57,2.32c-.19.03-.31.21-.27.39l-1.8.27c-.03-.17-.19-.28-.36-.26l-.51-2.6c-.12-.03-.21-.12-.24-.24-.32-.08-.63-.2-.94-.37-.3-.16-.58-.34-.85-.54-.11.1-.28.11-.4.02l-1.95,1.8c-.12-.14-.33-.15-.46-.03l-1.21-1.4c.15-.11.18-.33.05-.47l2.29-1.66c-.07-.14-.02-.29.1-.39-.17-.39-.27-.79-.3-1.21-.03-.44,0-.91.08-1.41-.11-.07-.17-.2-.14-.33l-2.76-1.74c.09-.15.05-.35-.1-.44l.85-1.39c.15.1.36.06.46-.1l2.45,1.67c.1-.12.28-.14.42-.06.24-.27.51-.5.81-.7.31-.21.65-.38,1.03-.51-.02-.15.07-.3.22-.35l-.52-3.63c.2,0,.35-.17.32-.37h1.63c0,.17.15.31.32.31l.12,3.4c.15.02.26.15.27.3.43.07.82.18,1.18.32.36.14.71.32,1.04.53.11-.08.25-.09.36-.02l2.13-1.7c.12.12.3.13.43.02l1.18,1.18c-.17.11-.19.35-.05.49l-2.31,1.56c.06.15.01.32-.12.4.12.25.21.59.26,1,.07.5.09,1.13.08,1.87.12.05.2.18.19.31l2.65,1.13c-.07.16,0,.35.17.42ZM86.09,110.02c-.42-.5-.68-1.14-.73-1.8-.69-.82-1.56-1.23-2.62-1.23-.98,0-1.82.39-2.51,1.18-.05.67-.33,1.32-.77,1.82-.08,1.05.24,1.94.96,2.65.65.64,1.42.96,2.31.96.94,0,1.73-.32,2.38-.96.72-.71,1.04-1.58.96-2.63ZM86.1,100.53c0-.84-.21-1.48-.63-1.91-.42-.43-1.07-.65-1.93-.65s-1.55.22-1.99.65-.65,1.07-.65,1.91.22,1.52.65,1.95,1.1.65,1.99.65,1.51-.22,1.93-.65c.42-.43.63-1.08.63-1.95Z"/>
      <path class="cls-1" d="M122.97,84.64l-.45,3.13c-.15.01-.27.13-.29.28l-6.7.5c-.02.15-.14.27-.3.28l-.46,3.72c.19,0,.33.17.31.36l6.99.2c-.06.2.09.41.3.41l-1.29,4.48c-.15,0-.29.09-.33.23l-6.34-.4c-.02.17-.17.29-.34.28l-2.64,19.37c-.14.02-.24.14-.26.27l-4.71.83c0-.2-.18-.34-.38-.31l-.66-20.82c-.16-.01-.29-.15-.3-.31l-5.82-.42c.05-.2-.09-.39-.29-.4l.92-3.46c.15,0,.28-.1.32-.24l4.74.1c0-.19.14-.34.33-.34l-.14-2.72c-.18.01-.34-.12-.35-.3l-6.3.49c-.04-.15-.18-.25-.34-.23l-1.37-4.93c.21,0,.37-.2.31-.41h7.51c0-.18.14-.33.32-.33l-.34-11.94c.17-.02.29-.16.29-.33l12.58-1.44c-.03.21.15.39.36.36l-1.84,13.3c.2,0,.35.17.32.37h6.34c-.03.19.12.37.32.37ZM113.65,78.51c0-.99-.25-1.73-.74-2.22-.49-.49-1.23-.74-2.22-.74s-1.73.25-2.22.74c-.49.49-.74,1.23-.74,2.22s.25,1.76.74,2.26c.49.49,1.23.74,2.22.74s1.73-.25,2.22-.74c.49-.49.74-1.25.74-2.26ZM112.35,87.39c0-.79-.19-1.38-.56-1.77-.37-.38-.94-.58-1.72-.58s-1.38.19-1.77.58c-.39.39-.58.97-.58,1.77s.19,1.34.58,1.72c.38.37.97.56,1.77.56s1.34-.19,1.72-.56c.37-.37.56-.94.56-1.72Z"/>
    </g>
  </g>
</svg>