<?xml version="1.0" encoding="UTF-8"?>
<svg id="Layer_2" data-name="Layer 2" xmlns="http://www.w3.org/2000/svg" viewBox="0 0 522.16 196.38">
  <defs>
    <style>
      .cls-1 {
        fill: #0519d1;
      }

      .cls-2 {
        fill: none;
        stroke: #231f20;
        stroke-miterlimit: 10;
        stroke-width: 13px;
      }
    </style>
  </defs>
  <g id="TEXTS">
    <g id="Layer_4" data-name="Layer 4">
      <line class="cls-2" x1="134.05" y1="64.46" x2="134.05" y2="123.61"/>
      <line class="cls-2" x1="6.53" y1="95.84" x2="136.98" y2="95.84"/>
      <line class="cls-2" x1="30.27" y1="191.89" x2="51.72" y2="169.42"/>
      <line class="cls-2" x1="28.54" y1="4.4" x2="52.03" y2="29.93"/>
      <path class="cls-2" d="M39.01,17.17c-44.81,46.95-43.09,121.2,3.86,166.01"/>
    </g>
    <g>
      <path class="cls-1" d="M72.32,83.85l-12.98,32.22c-.11.02-.21.09-.25.2l-5.29.85c-.06-.14-.2-.22-.35-.2l-9.27-23.47c-.09.29-.5.3-.61.02l-6.15,19.56c-.08.04-.14.11-.16.19l-9.75,4.87c-.05-.2-.27-.3-.46-.21l-.74-2.98c.14-.06.22-.22.18-.37l3.76-1.72c-.05-.15.03-.32.17-.39l-.49-1.58c-.18.08-.38-.01-.44-.2l-3.65,1.64c-.05-.2-.26-.3-.45-.22l-.64-2.6c.15-.06.23-.22.19-.38l3.32-1.33c-.05-.16.03-.34.18-.4l-.48-1.42c-.17.06-.36-.03-.41-.2l-3.23,1.15c-.05-.18-.24-.28-.42-.22l-.63-2.35c.15-.06.23-.22.19-.38l2.96-1.22c-.05-.16.03-.34.18-.4l-.48-1.44c-.17.07-.37-.02-.43-.2l-2.71,1.1c-.05-.19-.25-.28-.43-.21l-4.92-17.48c.14-.07.22-.23.18-.38l5.45-2.47c.07.17.26.25.43.17l9.98,24.48c.1-.28.49-.28.6-.01l8.09-22.17c.1-.03.18-.1.22-.2l9.36-2.57c.04.18.22.3.4.25l5.05,26.13c.11-.31.56-.28.62.04l8.92-25.83c.17.08.37-.01.43-.19l4.76,2.1c-.06.16,0,.34.17.41ZM48.84,119.09c0,1.23-.45,2.29-1.34,3.18-.89.89-1.95,1.34-3.18,1.34s-2.28-.45-3.16-1.34c-.88-.89-1.32-1.95-1.32-3.18,0-1.16.4-2.16,1.22-3,1.26.03,2.51-.49,3.38-1.4,1.18.03,2.19.46,3.06,1.3.89.87,1.34,1.9,1.34,3.11Z"/>
      <path class="cls-1" d="M89.99,119.13l-14.48-1.87c.03-.18-.1-.35-.28-.37l5.54-34.55c.16,0,.29-.11.32-.27h6.21c.01.17.15.3.32.3l2.73,36.43c-.2-.03-.38.14-.36.34ZM91.49,73.66l-.65,1.58c-.17-.09-.37-.01-.45.16l-2.6-1.35c-.09.12-.25.15-.39.08-.29.34-.61.63-.96.85-.33.21-.68.38-1.07.5.03.17-.06.34-.23.38l.57,2.32c-.19.03-.31.21-.27.39l-1.8.27c-.03-.17-.19-.28-.36-.26l-.51-2.6c-.12-.03-.21-.12-.24-.24-.32-.08-.63-.2-.94-.37-.3-.16-.58-.34-.85-.54-.11.1-.28.11-.4.02l-1.95,1.8c-.12-.14-.33-.15-.46-.03l-1.21-1.4c.15-.11.18-.33.05-.47l2.29-1.66c-.07-.14-.02-.29.1-.39-.17-.39-.27-.79-.3-1.21-.03-.44,0-.91.08-1.41-.11-.07-.17-.2-.14-.33l-2.76-1.74c.09-.15.05-.35-.1-.44l.85-1.39c.15.1.36.06.46-.1l2.45,1.67c.1-.12.28-.14.42-.06.24-.27.51-.5.81-.7.31-.21.65-.38,1.03-.51-.02-.15.07-.3.22-.35l-.52-3.63c.2,0,.35-.17.32-.37h1.63c0,.17.15.31.32.31l.12,3.4c.15.02.26.15.27.3.43.07.82.18,1.18.32.36.14.71.32,1.04.53.11-.08.25-.09.36-.02l2.13-1.7c.12.12.3.13.43.02l1.18,1.18c-.17.11-.19.35-.05.49l-2.31,1.56c.06.15.01.32-.12.4.12.25.21.59.26,1,.07.5.09,1.13.08,1.87.12.05.2.18.19.31l2.65,1.13c-.07.16,0,.35.17.42ZM86.09,110.02c-.42-.5-.68-1.14-.73-1.8-.69-.82-1.56-1.23-2.62-1.23-.98,0-1.82.39-2.51,1.18-.05.67-.33,1.32-.77,1.82-.08,1.05.24,1.94.96,2.65.65.64,1.42.96,2.31.96.94,0,1.73-.32,2.38-.96.72-.71,1.04-1.58.96-2.63ZM86.1,100.53c0-.84-.21-1.48-.63-1.91-.42-.43-1.07-.65-1.93-.65s-1.55.22-1.99.65-.65,1.07-.65,1.91.22,1.52.65,1.95,1.1.65,1.99.65,1.51-.22,1.93-.65c.42-.43.63-1.08.63-1.95Z"/>
      <path class="cls-1" d="M122.97,84.64l-.45,3.13c-.15.01-.27.13-.29.28l-6.7.5c-.02.15-.14.27-.3.28l-.46,3.72c.19,0,.33.17.31.36l6.99.2c-.06.2.09.41.3.41l-1.29,4.48c-.15,0-.29.09-.33.23l-6.34-.4c-.02.17-.17.29-.34.28l-2.64,19.37c-.14.02-.24.14-.26.27l-4.71.83c0-.2-.18-.34-.38-.31l-.66-20.82c-.16-.01-.29-.15-.3-.31l-5.82-.42c.05-.2-.09-.39-.29-.4l.92-3.46c.15,0,.28-.1.32-.24l4.74.1c0-.19.14-.34.33-.34l-.14-2.72c-.18.01-.34-.12-.35-.3l-6.3.49c-.04-.15-.18-.25-.34-.23l-1.37-4.93c.21,0,.37-.2.31-.41h7.51c0-.18.14-.33.32-.33l-.34-11.94c.17-.02.29-.16.29-.33l12.58-1.44c-.03.21.15.39.36.36l-1.84,13.3c.2,0,.35.17.32.37h6.34c-.03.19.12.37.32.37ZM113.65,78.51c0-.99-.25-1.73-.74-2.22-.49-.49-1.23-.74-2.22-.74s-1.73.25-2.22.74c-.49.49-.74,1.23-.74,2.22s.25,1.76.74,2.26c.49.49,1.23.74,2.22.74s1.73-.25,2.22-.74c.49-.49.74-1.25.74-2.26ZM112.35,87.39c0-.79-.19-1.38-.56-1.77-.37-.38-.94-.58-1.72-.58s-1.38.19-1.77.58c-.39.39-.58.97-.58,1.77s.19,1.34.58,1.72c.38.37.97.56,1.77.56s1.34-.19,1.72-.56c.37-.37.56-.94.56-1.72Z"/>
    </g>
    <g>
      <path d="M211.14,75.88l-5.94,1.71c-.2-2.62-.76-4.79-1.69-6.51-.93-1.72-2.23-3-3.92-3.84-.92-.45-2.39-.86-4.43-1.24-2.04-.38-4.63-.7-7.77-.95l-2.86,24.49,18.96-1-4.75,10.65-15.14-3.23-3.34,24.79,13.92.19,4.86-7.09,7.76-.44.19,11.84-35.77-2.02,2.08-38.73,4.97.26.82-3.19-5.71-.07.3-4.49,5.42.41.56-3.97h-5.79l.19-4.38,5.42.41.74-3.41-5.97-.3.37-6.75c2.45.2,4.91.39,7.38.58,2.47.19,4.95.35,7.42.5,2.94.35,5.57.85,7.87,1.5,2.3.66,4.27,1.48,5.9,2.47,2.15,1.29,3.89,2.92,5.21,4.9,1.32,1.98,2.25,4.29,2.76,6.94ZM198.34,73.43l-1.11,9.83-8.65-2.12,2.89-6.05,6.87-1.67Z"/>
      <path d="M235.56,60.07l-7.57,63.53-11.76-1.15.58-3.38,4.56.63.19-6.79-5.2-.33.26-3.08,4.94.07.11-6.49-5.44-.22.39-2.75h5.12l.11-7.12-5.88-.37.39-3.71,5.57,1v-6.09l-5.57-.63.45-3.04,5.23-.11.07-6.42-6.07-.3.69-3.49,5.38.56.19-6.05-6.44-.48.5-3.79h19.2Z"/>
      <path d="M280.46,120.8c-.62.62-1.18,1.17-1.67,1.65-.5.48-.93.87-1.3,1.17l2.78,4.15-2.6,1.52-2.82-3.48c-.99.59-2.04,1.09-3.15,1.5-1.11.41-2.3.68-3.56.83l-.07,4.38-3.34-.22.3-4.04c-1.14,0-2.35-.12-3.64-.35-1.29-.24-2.63-.59-4.04-1.06l-2.08,4.45-3.34-1.82,2.26-4.16c-1.21-.67-2.32-1.44-3.32-2.32s-1.89-1.87-2.65-2.99l-3.97,2.52-1.67-2.63,4.34-2.26c-.57-1.19-1.01-2.41-1.34-3.66-.32-1.25-.53-2.53-.63-3.84l-3.97,1-1.15-3.27,5.12-1.15c.12-1.38.33-2.63.63-3.75s.68-2.1,1.15-2.97l-3.6-2.15,1.71-2.82,3.53,2.45c.62-.77,1.29-1.46,2.02-2.08.73-.62,1.5-1.16,2.32-1.63l-3.04-4.42,3.34-1.63,2.45,4.71c.79-.25,1.51-.45,2.15-.59.64-.15,1.21-.26,1.71-.33l1-4.86,2.63.82-.67,3.86c.99,0,1.93.12,2.82.37.89.25,1.74.62,2.56,1.11l3.67-3.64,2.08,1.74-3.49,3.79c.54.52,1.05,1.15,1.52,1.88.47.73.89,1.54,1.26,2.43l4.34-1.45.74,2.75-4.19,1.45c.2.54.36,1.14.5,1.78.14.64.27,1.34.39,2.08l-17.26,3.01v.41c0,1.8.19,3.5.57,5.1.38,1.59.97,3.11,1.76,4.54.94,1.7,2.06,2.98,3.37,3.84s2.78,1.28,4.41,1.28,3.45-.45,5.3-1.34c1.85-.89,3.82-2.25,5.9-4.08l1.91,2.43ZM265.29,102.57c-.1-1.09-.5-1.9-1.21-2.45-.71-.54-1.71-.82-3.02-.82-1.61,0-3.1.48-4.49,1.45-1.39.96-2.33,2.2-2.82,3.71l11.54-1.89Z"/>
      <path d="M320.69,115.68c-2.35,3.14-4.94,5.48-7.77,7.04-2.83,1.55-5.91,2.33-9.25,2.33-5.18,0-9.39-1.59-12.65-4.77-3.26-3.18-4.89-7.34-4.89-12.49s1.86-9.47,5.57-13.19c3.71-3.72,8.1-5.58,13.15-5.58,1.51,0,2.89.12,4.17.37,1.27.25,2.41.62,3.43,1.11,1.36.64,2.37,1.46,3.04,2.44.67.99,1,2.13,1,3.44,0,1.22-.5,2.42-1.5,3.61-1,1.19-2.51,2.37-4.53,3.54l-1.62-1.54c.52-.52.95-1.06,1.28-1.61.33-.56.56-1.13.69-1.72l-4.42-1.11.52-1.59,4.01.56c-.07-.62-.29-1.17-.65-1.67s-.86-.93-1.5-1.3c-.54-.32-1.12-.56-1.72-.7-.6-.15-1.24-.22-1.9-.22-.35,0-.71.02-1.1.06-.38.04-.77.08-1.17.13l.86,5.79-1.71.41-1.52-5.05c-1.14.52-2.12,1.26-2.96,2.23-.83.96-1.49,2.13-1.99,3.49l5.13,1.52-.74,1.89-5.06-1.26c-.2.57-.35,1.24-.46,2.02s-.17,1.68-.17,2.69c0,.47.02.92.07,1.35.05.43.12.85.22,1.24l4.23-1.45,1.15,2.19-4.86,1.71c.22.74.57,1.5,1.04,2.28.47.78,1.05,1.59,1.74,2.43l3.37-2.63,1.63,1.34-2.93,2.82c.81.64,1.74,1.12,2.76,1.43,1.03.31,2.2.46,3.5.46l.33-4.34h1.93l.37,4.27c.89-.07,1.76-.25,2.61-.54.85-.28,1.71-.67,2.58-1.17l-1.34-3.71,1.71-.63,1.45,3.01c.42-.32.86-.71,1.32-1.17.46-.46.92-.98,1.39-1.58l2.13,1.84Z"/>
      <path d="M351.08,91.99l-.56,3.86-7.42.56-.56,4.45,7.98.22-1.52,5.27-7.09-.45-2.78,20.45-5.46.96-.71-22.08-6.68-.48,1.11-4.19,5.49.11-.19-3.49-7.09.56-1.6-5.75h8.5l-.37-12.91,13.66-1.56-2,14.47h7.27ZM341.45,86.07c0-1.01-.25-1.77-.76-2.28-.51-.51-1.27-.76-2.28-.76s-1.78.25-2.28.76-.76,1.27-.76,2.28.25,1.81.76,2.32c.51.51,1.27.76,2.28.76s1.77-.25,2.28-.76.76-1.28.76-2.32ZM340.12,95.2c0-.82-.19-1.42-.58-1.82-.38-.4-.97-.59-1.76-.59s-1.42.2-1.82.59-.59,1-.59,1.82.2,1.38.59,1.76c.4.38,1,.58,1.82.58s1.38-.19,1.76-.58.58-.97.58-1.76Z"/>
      <path d="M392.77,94.86l-3.6,1.34c0,.2.01.5.04.89.02.4.04.71.04.93,0,.64-.07,1.24-.2,1.8-.14.56-.34,1.07-.61,1.54l3.19,2.26-2.01,1.99-2.83-2.28c-.4.37-.85.72-1.36,1.05-.51.33-1.07.65-1.69.98l-1.89-2.62c.4-.49.69-.99.87-1.48s.28-.99.28-1.48c0-1.01-.35-1.78-1.04-2.29-.69-.52-1.73-.78-3.12-.78-1.53,0-3.17.82-4.9,2.47-1.73,1.65-3.56,4.1-5.49,7.37l.56,20.41-12.73-1.91,5.77-34.92,5.88-1.21.3,10.95c.79-1.11,1.56-2.1,2.3-2.97.74-.87,1.46-1.62,2.15-2.26l-1.6-3.6,2.52-1.3,1.34,3.08c.87-.52,1.75-.96,2.65-1.32.9-.36,1.82-.61,2.76-.76l.11-3.71,2.71.26-.56,3.38c1.39.07,2.57.39,3.55.94.98.55,1.73,1.34,2.25,2.35l3.38-1.77.96,2.7ZM365.94,119.13c0-.87-.29-1.6-.87-2.21-.58-.61-1.29-.91-2.13-.91s-1.53.3-2.13.91-.91,1.34-.91,2.21c0,1.01.25,1.77.76,2.26.51.5,1.27.74,2.28.74s1.8-.25,2.28-.74c.48-.49.72-1.25.72-2.26ZM366.13,110.04c0-.77-.2-1.35-.59-1.76-.4-.41-1.01-.61-1.86-.61-.77,0-1.35.2-1.74.61-.4.41-.59,1-.59,1.76s.2,1.38.59,1.76c.4.38.98.58,1.74.58.84,0,1.46-.19,1.86-.58.4-.38.59-.97.59-1.76Z"/>
      <path d="M411.2,127.87l-15.62-2.02,5.79-36.13h6.98l2.86,38.15ZM412.46,80.78l-.93,2.26-3.23-1.67c-.35.45-.73.8-1.15,1.08-.42.27-.89.47-1.41.59l.74,3.04-2.52.37-.63-3.19c-.4-.07-.79-.22-1.17-.43-.38-.21-.75-.45-1.09-.72l-2.45,2.26-1.71-1.97,2.86-2.08c-.25-.47-.39-.96-.43-1.48s0-1.08.13-1.67l-3.3-2.08,1.22-2,3.04,2.08c.3-.37.64-.69,1.02-.95.38-.26.82-.46,1.32-.61l-.63-4.38h2.38l.15,4.08c.54.07,1.04.2,1.48.37.45.17.87.4,1.26.67l2.6-2.08,1.71,1.71-2.97,2c.2.27.33.69.41,1.26.07.57.1,1.29.07,2.15l3.23,1.37ZM406.8,118.76c0-.94-.33-1.74-1-2.41s-1.48-1-2.45-1-1.71.33-2.38,1-1,1.47-1,2.41.33,1.74,1,2.39c.67.66,1.46.98,2.38.98.96,0,1.78-.33,2.45-.98.67-.66,1-1.45,1-2.39ZM406.8,108.71c0-.87-.22-1.52-.65-1.97-.43-.45-1.09-.67-1.99-.67s-1.6.22-2.04.67-.67,1.1-.67,1.97.22,1.56.67,2,1.12.67,2.04.67,1.55-.22,1.99-.67c.43-.45.65-1.11.65-2Z"/>
      <path d="M454.13,115.68c-2.35,3.14-4.94,5.48-7.77,7.04-2.83,1.55-5.91,2.33-9.25,2.33-5.18,0-9.39-1.59-12.65-4.77-3.26-3.18-4.88-7.34-4.88-12.49s1.86-9.47,5.57-13.19c3.71-3.72,8.1-5.58,13.15-5.58,1.51,0,2.9.12,4.17.37s2.41.62,3.43,1.11c1.36.64,2.37,1.46,3.04,2.44s1,2.13,1,3.44c0,1.22-.5,2.42-1.5,3.61-1,1.19-2.51,2.37-4.53,3.54l-1.61-1.54c.52-.52.95-1.06,1.28-1.61.33-.56.56-1.13.69-1.72l-4.42-1.11.52-1.59,4.01.56c-.07-.62-.29-1.17-.65-1.67s-.86-.93-1.5-1.3c-.54-.32-1.12-.56-1.72-.7-.6-.15-1.24-.22-1.9-.22-.35,0-.71.02-1.1.06s-.77.08-1.17.13l.86,5.79-1.71.41-1.52-5.05c-1.14.52-2.12,1.26-2.96,2.23-.83.96-1.49,2.13-1.99,3.49l5.13,1.52-.74,1.89-5.06-1.26c-.2.57-.35,1.24-.46,2.02s-.17,1.68-.17,2.69c0,.47.02.92.07,1.35.05.43.12.85.22,1.24l4.23-1.45,1.15,2.19-4.86,1.71c.22.74.57,1.5,1.04,2.28s1.05,1.59,1.74,2.43l3.38-2.63,1.63,1.34-2.93,2.82c.82.64,1.74,1.12,2.76,1.43,1.03.31,2.19.46,3.5.46l.33-4.34h1.93l.37,4.27c.89-.07,1.76-.25,2.61-.54.85-.28,1.71-.67,2.58-1.17l-1.33-3.71,1.71-.63,1.45,3.01c.42-.32.86-.71,1.32-1.17.46-.46.92-.98,1.39-1.58l2.13,1.84Z"/>
      <path d="M495.84,119.77l-.04,2c-3.83,1.74-7.63,3.04-11.37,3.89s-7.45,1.29-11.11,1.29c-2.03,0-3.88-.2-5.57-.59-1.68-.4-3.19-.98-4.53-1.74-1.58-.92-2.78-2.09-3.58-3.53-.8-1.43-1.21-3.1-1.21-5.01,0-3.36,1.69-6.37,5.07-9.02,3.38-2.65,8.42-4.94,15.14-6.87-.54-1.58-1.47-2.78-2.76-3.6s-2.95-1.22-4.95-1.22c-2.15,0-4.11.44-5.86,1.32-1.76.88-3.32,2.17-4.68,3.88l-1.99-1.91c2.08-3.18,4.65-5.59,7.72-7.2,3.07-1.62,6.64-2.43,10.72-2.43,3.31,0,6.23.92,8.74,2.76,2.51,1.84,4.63,4.6,6.36,8.29,1.36,2.89,2.37,5.98,3.02,9.25.66,3.28.95,6.76.87,10.44ZM481.26,117.04c0-2.25-.1-4.48-.31-6.68-.21-2.2-.53-4.38-.97-6.53-2.33.67-4.43,1.38-6.3,2.13-1.87.75-3.5,1.55-4.89,2.39l3.8,15.33c1.97,0,3.68-.11,5.11-.33,1.43-.22,2.58-.58,3.44-1.08.05-.89.08-1.77.09-2.63.01-.87.02-1.73.02-2.6ZM490.07,106.85c0-.89-.22-1.56-.65-2-.43-.45-1.09-.67-1.99-.67s-1.57.22-2.02.67c-.46.45-.69,1.11-.69,2s.23,1.55.69,1.99c.46.43,1.13.65,2.02.65s1.55-.22,1.99-.65.65-1.09.65-1.99ZM491.6,116.87c0-.94-.33-1.74-.98-2.41-.66-.67-1.47-1-2.43-1s-1.75.32-2.43.96c-.68.64-1.02,1.46-1.02,2.45s.34,1.77,1.02,2.41c.68.64,1.49.96,2.43.96s1.77-.33,2.43-.98.98-1.45.98-2.39Z"/>
      <path d="M522.16,60.07l-7.57,63.53-11.76-1.15.58-3.38,4.56.63.19-6.79-5.2-.33.26-3.08,4.94.07.11-6.49-5.44-.22.39-2.75h5.12l.11-7.12-5.88-.37.39-3.71,5.57,1v-6.09l-5.57-.63.45-3.04,5.23-.11.07-6.42-6.07-.3.69-3.49,5.38.56.19-6.05-6.44-.48.5-3.79h19.2Z"/>
    </g>
  </g>
</svg>